<mxfile host="app.diagrams.net" modified="2024-09-11T16:14:23.668Z" agent="Mozilla/5.0 (Windows NT 10.0; Win64; x64) AppleWebKit/537.36 (KHTML, like Gecko) Chrome/128.0.0.0 Safari/537.36" version="24.3.1" etag="fiqArgqAbuw_r38DcBhn" type="github">
  <diagram name="Page-1" id="ahcmRicz3mm1Vk4yJkaC">
    <mxGraphModel>
      <root>
        <mxCell id="0" />
        <mxCell id="1" parent="0" />
      </root>
    </mxGraphModel>
  </diagram>
</mxfile>
